<svg width="24" height="24" viewBox="0 0 24 24" fill="none" xmlns="http://www.w3.org/2000/svg">
<path d="M5.93162 21.6597L15.1308 16.4673L13.1556 14.2797L5.93162 21.6597ZM2.57162 2.5473C2.46482 2.7369 2.40002 2.9553 2.40002 3.1977V21.3477C2.40002 21.6837 2.52602 21.9717 2.71562 22.1997L11.868 12.8517L2.57162 2.5473ZM20.976 11.3781L17.7684 9.5673L14.502 12.9045L16.8432 15.5001L20.976 13.1685C21.1469 13.0837 21.2936 12.9573 21.4026 12.8008C21.5117 12.6443 21.5796 12.4629 21.6 12.2733C21.5796 12.0837 21.5117 11.9023 21.4026 11.7458C21.2936 11.5894 21.1469 11.4629 20.976 11.3781ZM16.038 8.5905L4.97402 2.3457L13.2132 11.4777L16.038 8.5905Z" fill="#F2F2F2" fill-opacity="0.4"/>
</svg>
